<svg xmlns="http://www.w3.org/2000/svg" width="33" height="33" viewBox="0 0 33 33" fill="none"><path fill-rule="evenodd" clip-rule="evenodd" d="M6.5 2.5H26.5V4.5H6.5V2.5ZM6.5 28.5V4.5H4.5V28.5H6.5ZM26.5 28.5V30.5H6.5V28.5H26.5ZM26.5 28.5V4.5H28.5V28.5H26.5Z" fill="#020617"></path><rect x="6.5" y="22.5" width="20" height="6" fill="#0080D4"></rect><rect x="8.5" y="24.5" width="18" height="4" fill="white"></rect><rect x="8.5" y="4.5" width="18" height="18" fill="#14ADFF"></rect><rect x="6.5" y="4.5" width="2" height="18" fill="#2CBAFF"></rect><path d="M8.5 4.5H10.5V24.5H8.5V4.5Z" fill="#0080D4"></path><rect x="8.5" y="24.5" width="2" height="2" fill="#CBD5E1"></rect><rect x="8.5" y="24.5" width="2" height="4" fill="#CBD5E1"></rect><rect width="2" height="2" transform="matrix(1 0 0 -1 8.5 28.5)" fill="#CBD5E1"></rect><rect x="12.5" y="8.5" width="10" height="2" fill="#0080D4"></rect><rect x="12.5" y="12.5" width="10" height="2" fill="#0080D4"></rect></svg>