<svg xmlns="http://www.w3.org/2000/svg" width="20" height="20" viewBox="0 0 20 20" fill="none"><path d="M8.33356 5H3.33356V16.667H14.9996V11.667H16.6666V18.334H1.66656V3.33398H8.33356V5ZM6.66656 13.334H9.99957V15H4.99957V10H6.66656V13.334ZM11.6666 13.334H9.99957V11.667H11.6666V13.334ZM13.3336 11.667H11.6666V10H13.3336V11.667ZM8.33356 10H6.66656V8.33398H8.33356V10ZM14.9996 10H13.3336V8.33398H14.9996V10ZM9.99957 8.33398H8.33356V6.66699H9.99957V8.33398ZM16.6666 8.33398H14.9996V6.66699H16.6666V8.33398ZM11.6666 6.66699H9.99957V5H11.6666V6.66699ZM18.3336 6.66699H16.6666V5H18.3336V6.66699ZM13.3336 5H11.6666V3.33398H13.3336V5ZM16.6666 5H14.9996V3.33398H16.6666V5ZM14.9996 3.33398H13.3336V1.66699H14.9996V3.33398Z" fill="#020617"></path></svg>