<svg xmlns="http://www.w3.org/2000/svg" width="33" height="32" viewBox="0 0 33 32" fill="none"><path fill-rule="evenodd" clip-rule="evenodd" d="M18.5 0H16.5V2H14.5V8H12.5V14H10.5V12H8.5V10H6.5V12H4.5V16H2.5V22H4.5V26H6.5V28H8.5V30H10.5V32H22.5V30H24.5V28H26.5V26H28.5V22H30.5V16H28.5V12H26.5V8H24.5V6H22.5V4H20.5V2H18.5V0ZM18.5 2V4H20.5V6H22.5V8H24.5V12H26.5V16H28.5V22H26.5V26H24.5V28H22.5V30H10.5V28H8.5V26H6.5V22H4.5V16H6.5V12H8.5V14H10.5V16H12.5V14H14.5V8H16.5V2H18.5Z" fill="#020617"></path><path fill-rule="evenodd" clip-rule="evenodd" d="M18.5 2H16.5V8H14.5V14H12.5V16H10.5V14H8.5V12H6.5V16H4.5V22H6.5V26H8.5V28H10.5V30H12.5H14.5H16.5H18.5H20.5H22.5V28H24.5V26H26.5V22H28.5V16H26.5V12H24.5V8H22.5V6H20.5V4H18.5V2Z" fill="#FF7A00"></path><path fill-rule="evenodd" clip-rule="evenodd" d="M18.5 10H20.5V12H22.5V16H24.5V24H22.5V26H20.5V28H18.5H12.5V26H10.5V24H8.5V18H10.5V20H12.5H14.5V18H16.5V12H18.5V10Z" fill="#FDE047"></path></svg>