<svg xmlns="http://www.w3.org/2000/svg" width="32" height="32" viewBox="0 0 32 32" fill="none"><path fill-rule="evenodd" clip-rule="evenodd" d="M20 2H12V4H8V6H6V8H4V12H2V20H4V24H6V26H8V28H12V30H20V28H24V26H26V24H28V20H30V12H28V8H26V6H24V4H20V2ZM20 4V6H24V8H26V12H28V20H26V24H24V26H20V28H12V26H8V24H6V20H4V12H6V8H8V6H12V4H20Z" fill="#020617"></path><path fill-rule="evenodd" clip-rule="evenodd" d="M20 4H12V6H8V8H6V12H4V20H6V24H8V26H12V28H20V26H24V24H26V20H28V12H26V8H24V6H20V4Z" fill="#14ADFF"></path><rect x="4" y="12" width="6" height="8" fill="#75D1FF"></rect><rect x="10" y="10" width="12" height="12" fill="#EFF8FF"></rect><path fill-rule="evenodd" clip-rule="evenodd" d="M12 26H8V24H6V20H12V22V24V26Z" fill="#0080D4"></path><path fill-rule="evenodd" clip-rule="evenodd" d="M12 6H8V8H6V12H12V10V8V6Z" fill="#2CBAFF"></path><path fill-rule="evenodd" clip-rule="evenodd" d="M20 6H24V8H26V12H20V10V8V6Z" fill="#2CBAFF"></path><path fill-rule="evenodd" clip-rule="evenodd" d="M20 26H24V24H26V20H20V22V24V26Z" fill="#75D1FF"></path><rect x="22" y="12" width="6" height="8" fill="#B6E4FF"></rect><rect x="12" y="4" width="8" height="6" fill="#75D1FF"></rect></svg>