<svg xmlns="http://www.w3.org/2000/svg" width="33" height="33" viewBox="0 0 33 33" fill="none"><rect x="4.5" y="4.5" width="24" height="2" fill="#020617"></rect><rect x="4.5" y="26.5" width="24" height="2" fill="#020617"></rect><rect x="2.5" y="6.5" width="2" height="20" fill="#020617"></rect><rect x="28.5" y="6.5" width="2" height="20" fill="#020617"></rect><rect x="4.5" y="6.5" width="24" height="18" fill="#14ADFF"></rect><rect x="20.5" y="16.5" width="4" height="8" fill="#A3E635"></rect><rect x="18.5" y="16.5" width="2" height="8" fill="#A3E635"></rect><rect x="16.5" y="18.5" width="2" height="6" fill="#A3E635"></rect><rect x="4.5" y="20.5" width="4" height="4" fill="#A3E635"></rect><rect x="6.5" y="20.5" width="6" height="4" fill="#A3E635"></rect><rect x="8.5" y="20.5" width="2" height="2" fill="#A3E635"></rect><rect width="4" height="4" transform="matrix(-1 0 0 1 16.5 20.5)" fill="#A3E635"></rect><rect x="24.5" y="18.5" width="4" height="6" fill="#A3E635"></rect><rect x="4.5" y="20.5" width="2" height="2" fill="#84CC16"></rect><rect x="10.5" y="10.5" width="4" height="4" fill="#FDE047"></rect><rect x="20.5" y="16.5" width="2" height="2" fill="#BEF264"></rect><rect x="22.5" y="16.5" width="2" height="2" fill="#BEF264"></rect><rect x="16.5" y="18.5" width="2" height="2" fill="#BEF264"></rect><rect x="26.5" y="18.5" width="2" height="2" fill="#BEF264"></rect><rect x="18.5" y="16.5" width="2" height="2" fill="#BEF264"></rect><rect x="14.5" y="18.5" width="2" height="2" fill="#BEF264"></rect><rect x="6.5" y="20.5" width="8" height="2" fill="#BEF264"></rect><rect x="22.5" y="10.5" width="4" height="2" fill="white"></rect><rect x="6.5" y="14.5" width="2" height="2" fill="white"></rect><rect x="26.5" y="8.5" width="2" height="2" fill="white"></rect><rect x="20.5" y="12.5" width="6" height="2" fill="white"></rect><rect x="4.5" y="6.5" width="2" height="20" fill="#EAB308"></rect><rect x="4.5" y="6.5" width="24" height="2" fill="#EAB308"></rect><rect x="4.5" y="24.5" width="24" height="2" fill="#EAB308"></rect><rect x="26.5" y="6.5" width="2" height="20" fill="#EAB308"></rect></svg>