<svg xmlns="http://www.w3.org/2000/svg" width="33" height="33" viewBox="0 0 33 33" fill="none"><g clip-path="url(#clip0_793_79456)"><path fill-rule="evenodd" clip-rule="evenodd" d="M14.5 0.5H18.5V2.5H14.5V0.5ZM12.5 6.5V2.5H14.5V6.5H12.5ZM10.5 10.5V6.5H12.5V10.5H10.5ZM6.5 12.5V10.5H10.5V12.5H6.5ZM2.5 14.5V12.5H6.5V14.5H2.5ZM2.5 18.5H0.5V14.5H2.5V18.5ZM6.5 20.5H2.5V18.5H6.5V20.5ZM10.5 22.5H6.5V20.5H10.5V22.5ZM12.5 26.5H10.5V22.5H12.5V26.5ZM14.5 30.5V26.5H12.5V30.5H14.5ZM18.5 30.5V32.5H14.5V30.5H18.5ZM20.5 26.5V30.5H18.5V26.5H20.5ZM22.5 22.5V26.5H20.5V22.5H22.5ZM26.5 20.5V22.5H22.5V20.5H26.5ZM30.5 18.5V20.5H26.5V18.5H30.5ZM30.5 14.5H32.5V18.5H30.5V14.5ZM26.5 12.5H30.5V14.5H26.5V12.5ZM22.5 10.5H26.5V12.5H22.5V10.5ZM20.5 6.5H22.5V10.5H20.5V6.5ZM20.5 6.5V2.5H18.5V6.5H20.5Z" fill="#020617"></path><path fill-rule="evenodd" clip-rule="evenodd" d="M14.5 2.5H18.5V6.5H20.5V10.5H22.5V12.5H26.5V14.5H30.5V18.5H26.5V20.5H22.5V22.5H20.5V26.5H18.5V30.5H14.5V26.5H12.5V22.5H10.5V20.5H6.5V18.5H2.5V14.5H6.5V12.5H10.5V10.5H12.5V6.5H14.5V2.5Z" fill="#EAB308"></path><path fill-rule="evenodd" clip-rule="evenodd" d="M18.5 2.5H16.5V16.5H18.5H20.5H22.5H26.5V12.5H22.5V10.5H20.5V6.5H18.5V2.5Z" fill="#FDE047"></path><rect x="26.5" y="14.5" width="4" height="2" fill="#FDE047"></rect><path fill-rule="evenodd" clip-rule="evenodd" d="M18.5 2.5H16.5V6.5H18.5V10.5H20.5V12.5H22.5V14.5H26.5V16.5H30.5V14.5H26.5V12.5H22.5V10.5H20.5V6.5H18.5V2.5Z" fill="white"></path><path fill-rule="evenodd" clip-rule="evenodd" d="M2.5 16.5H14.5H16.5V30.5H14.5V26.5H12.5V22.5H10.5V20.5H6.5V18.5H2.5V16.5Z" fill="#CA8A04"></path><path fill-rule="evenodd" clip-rule="evenodd" d="M16.5 16.5H2.5V18.5H6.5V20.5H10.5V22.5H12.5V26.5H14.5V30.5H16.5V26.5V22.5V20.5V18.5V16.5Z" fill="#CA8A04"></path></g><defs><clipPath id="clip0_793_79456"><rect width="32" height="32" fill="white" transform="translate(0.5 0.5)"></rect></clipPath></defs></svg>